# xmcd
#
# Track frame offsets:
#	182
#	13550
#	26477
#	39050
#	55697
#	71010
#	85535
#	96545
#	112120
#	124522
#	141142
#	160550
#	173275
#	188495
#	199585
#	214300
#	232120
#	247232
#	262447
#	273605
#	288980
#	302385
#
# Disc length: 4274 seconds
#
# Revision: 7
# Processed by: cddbd v1.5.2PL0 Copyright (c) Steve Scherf et al.
# Submitted via: EasyCDDAExtractor 16.1.0.1
#
DISCID=3110b016
DTITLE=Various Artist - Time Life Contemporary Country the Mid 80s Pure Gold
DYEAR=1900
DGENRE=Country
TTITLE0=Diggin' Up Bones
TTITLE1=Let's Chase Each Other Around The Room
TTITLE2=She Sure Got Away With My Heart
TTITLE3=I'll Never Stop Loving You
TTITLE4=Whoever's In New England
TTITLE5=High Horse
TTITLE6=Desperado Love
TTITLE7=Elizabeth
TTITLE8=She's Single Again
TTITLE9=Mona Lisa Lost Her Smile
TTITLE10=Cry
TTITLE11=Honky Tonk Man
TTITLE12=Have Mercy
TTITLE13=She's My Rock
TTITLE14=I Fell In Love Again Last Night
TTITLE15=She Keeps The Home Fires Burning
TTITLE16=You're The Last Thing I Needed Tonight
TTITLE17=Tennessee Homesick Blues
TTITLE18=I Got Mexico
TTITLE19=If You're Gonna Play In Texas (You Gotta Have A Fiddle In The Band)
TTITLE20=All My Rowdy Friends Are Coming Over Tonight
TTITLE21=Old Hippie
EXTD=
EXTT0=
EXTT1=
EXTT2=
EXTT3=
EXTT4=
EXTT5=
EXTT6=
EXTT7=
EXTT8=
EXTT9=
EXTT10=
EXTT11=
EXTT12=
EXTT13=
EXTT14=
EXTT15=
EXTT16=
EXTT17=
EXTT18=
EXTT19=
EXTT20=
EXTT21=
PLAYORDER=
